<?xml version="1.0" encoding="UTF-8"?>
<svg width="100px" height="100px" viewBox="0 0 100 100" version="1.1" xmlns="http://www.w3.org/2000/svg" xmlns:xlink="http://www.w3.org/1999/xlink">
    <!-- Generator: Sketch 40.3 (33839) - http://www.bohemiancoding.com/sketch -->
    <title>handy_navigation</title>
    <desc>Created with Sketch.</desc>
    <defs></defs>
    <g id="Page-1" stroke="none" stroke-width="1" fill="none" fill-rule="evenodd">
        <g id="Icons" transform="translate(-191.000000, -41.000000)" fill="#080808">
            <g id="handy_navigation" transform="translate(191.000000, 41.000000)">
                <g>
                    <g id="share_2_">
                        <g id="responsive_design" transform="translate(0.000000, 10.909091)">
                            <g id="responsive_design_1_">
                                <g id="Group">
                                    <path d="M10.6425926,0 L3.7037037,0 C1.66666667,0 0,1.63636364 0,3.63636364 L0,19.6 C0.535185185,19.1254545 1.16111111,18.7581818 1.85185185,18.5145455 L1.85185185,3.63636364 C1.85185185,2.63454545 2.68333333,1.81818182 3.7037037,1.81818182 L10.3037037,1.81818182 C10.3777778,1.19818182 10.4944444,0.594545455 10.6425926,0 L10.6425926,0 Z" id="Shape"></path>
                                    <path d="M96.2962963,0 L41.2092593,0 C41.3555556,0.594545455 41.4740741,1.19818182 41.5481481,1.81818182 L96.2962963,1.81818182 C97.3166667,1.81818182 98.1481481,2.63454545 98.1481481,3.63636364 L98.1481481,61.8181818 L42.5925926,61.8181818 L42.5925926,63.6363636 L98.1481481,63.6363636 L98.1481481,67.2727273 C98.1481481,68.2745455 97.3166667,69.0909091 96.2962963,69.0909091 L42.5925926,69.0909091 L42.5925926,70.9090909 L59.7148148,70.9090909 L62.3592593,80 L42.5925926,80 L42.5925926,81.8181818 L70.3703704,81.8181818 C71.3907407,81.8181818 72.2222222,82.6345455 72.2222222,83.6363636 L42.5925926,83.6363636 L42.5925926,85.4545455 L74.0740741,85.4545455 L74.0740741,83.6363636 C74.0740741,81.6290909 72.4148148,80 70.3703704,80 L64.287037,80 L61.6388889,70.9090909 L96.2962963,70.9090909 C98.3333333,70.9090909 100,69.2727273 100,67.2727273 L100,3.63636364 C100,1.63636364 98.3333333,0 96.2962963,0 L96.2962963,0 Z" id="Shape"></path>
                                    <g transform="translate(3.703704, 3.636364)" id="Shape">
                                        <path d="M6.48148148,0 L0,0 L0,14.5454545 L1.85185185,14.5454545 L1.85185185,1.81818182 L6.6,1.81818182 C6.52777778,1.22181818 6.48148148,0.616363636 6.48148148,0 L6.48148148,0 Z"></path>
                                        <path d="M37.962963,0 C37.962963,0.616363636 37.9166667,1.22181818 37.8444444,1.81818182 L90.7407407,1.81818182 L90.7407407,52.7272727 L38.8888889,52.7272727 L38.8888889,54.5454545 L92.5925926,54.5454545 L92.5925926,0 L37.962963,0 L37.962963,0 Z"></path>
                                    </g>
                                </g>
                            </g>
                        </g>
                        <g id="share_1_" transform="translate(9.259259, 0.000000)">
                            <path d="M16.6666667,28.1818182 C9.00740741,28.1818182 2.77777778,22.0654545 2.77777778,14.5454545 C2.77777778,7.02545455 9.00740741,0.909090909 16.6666667,0.909090909 C24.3259259,0.909090909 30.5555556,7.02545455 30.5555556,14.5454545 C30.5555556,22.0654545 24.3259259,28.1818182 16.6666667,28.1818182 L16.6666667,28.1818182 Z M16.6666667,2.72727273 C10.0296296,2.72727273 4.62962963,8.02909091 4.62962963,14.5454545 C4.62962963,21.0618182 10.0296296,26.3636364 16.6666667,26.3636364 C23.3037037,26.3636364 28.7037037,21.0618182 28.7037037,14.5454545 C28.7037037,8.02909091 23.3037037,2.72727273 16.6666667,2.72727273 L16.6666667,2.72727273 Z" id="Shape"></path>
                            <path d="M11.1111111,73.6363636 C5.49444444,73.6363636 0.925925926,69.1490909 0.925925926,63.6363636 C0.925925926,58.1236364 5.49444444,53.6363636 11.1111111,53.6363636 C16.7277778,53.6363636 21.2962963,58.1236364 21.2962963,63.6363636 C21.2962963,69.1490909 16.7277778,73.6363636 11.1111111,73.6363636 L11.1111111,73.6363636 Z M11.1111111,55.4545455 C6.51666667,55.4545455 2.77777778,59.1254545 2.77777778,63.6363636 C2.77777778,68.1472727 6.51666667,71.8181818 11.1111111,71.8181818 C15.7055556,71.8181818 19.4444444,68.1472727 19.4444444,63.6363636 C19.4444444,59.1254545 15.7055556,55.4545455 11.1111111,55.4545455 L11.1111111,55.4545455 Z" id="Shape"></path>
                            <g id="Group" transform="translate(18.518519, 19.181818)">
                                <g transform="translate(0.000000, 9.909091)" id="Shape">
                                    <path d="M39.3444444,15.8018182 L0.812962963,30.4472727 C1.09259259,30.9836364 1.31481481,31.5472727 1.48148148,32.1418182 L40.0166667,17.4963636 C39.75,16.9527273 39.5203704,16.3909091 39.3444444,15.8018182 L39.3444444,15.8018182 Z"></path>
                                    <path d="M50,24.5454545 C43.362963,24.5454545 37.962963,19.2436364 37.962963,12.7272727 C37.962963,6.21090909 43.362963,0.909090909 50,0.909090909 C56.637037,0.909090909 62.037037,6.21090909 62.037037,12.7272727 C62.037037,19.2436364 56.637037,24.5454545 50,24.5454545 L50,24.5454545 Z M50,2.72727273 C44.3833333,2.72727273 39.8148148,7.21454545 39.8148148,12.7272727 C39.8148148,18.24 44.3833333,22.7272727 50,22.7272727 C55.6166667,22.7272727 60.1851852,18.24 60.1851852,12.7272727 C60.1851852,7.21454545 55.6166667,2.72727273 50,2.72727273 L50,2.72727273 Z"></path>
                                </g>
                                <path d="M9.09814815,2.15454545 L39.8037037,18.3054545 C40.0518519,17.7436364 40.3462963,17.2109091 40.6833333,16.7036364 L9.97592593,0.552727273 C9.72222222,1.11090909 9.42777778,1.64363636 9.09814815,2.15454545 Z" id="Shape"></path>
                            </g>
                        </g>
                    </g>
                    <path d="M25.9259259,36.3636364 L14.8148148,36.3636364 C14.3037037,36.3636364 13.8888889,35.9563636 13.8888889,35.4545455 C13.8888889,34.9527273 14.3037037,34.5454545 14.8148148,34.5454545 L25.9259259,34.5454545 C26.437037,34.5454545 26.8518519,34.9527273 26.8518519,35.4545455 C26.8518519,35.9563636 26.437037,36.3636364 25.9259259,36.3636364 L25.9259259,36.3636364 Z" id="Shape"></path>
                    <path d="M20.3703704,89.0909091 C18.3240741,89.0909091 16.6666667,90.7181818 16.6666667,92.7272727 C16.6666667,94.7363636 18.3240741,96.3654545 20.3703704,96.3654545 C22.4166667,96.3654545 24.0740741,94.7363636 24.0740741,92.7272727 C24.0740741,90.7181818 22.4166667,89.0909091 20.3703704,89.0909091 L20.3703704,89.0909091 Z M21.6796296,94.0145455 C21.3296296,94.3563636 20.8666667,94.5472727 20.3703704,94.5472727 C19.3481481,94.5472727 18.5185185,93.7327273 18.5185185,92.7272727 C18.5185185,91.7254545 19.3481481,90.9090909 20.3703704,90.9090909 C21.3907407,90.9090909 22.2222222,91.7254545 22.2222222,92.7290909 C22.2222222,93.2145455 22.0296296,93.6727273 21.6796296,94.0145455 L21.6796296,94.0145455 Z" id="Shape"></path>
                    <path d="M38.8888889,59.5218182 L38.8888889,96.3636364 C38.8888889,97.3654545 38.0574074,98.1818182 37.037037,98.1818182 L3.7037037,98.1818182 C2.68333333,98.1818182 1.85185185,97.3654545 1.85185185,96.3636364 L1.85185185,34.5454545 C1.85185185,33.5436364 2.68333333,32.7272727 3.7037037,32.7272727 L37.037037,32.7272727 C38.0574074,32.7272727 38.8888889,33.5436364 38.8888889,34.5454545 L38.8888889,53.6745455 L40.7407407,52.9690909 L40.7407407,34.5454545 C40.7407407,32.5454545 39.0740741,30.9090909 37.037037,30.9090909 L3.7037037,30.9090909 C1.66666667,30.9090909 0,32.5454545 0,34.5454545 L0,96.3636364 C0,98.3636364 1.66666667,100 3.7037037,100 L37.037037,100 C39.0740741,100 40.7407407,98.3636364 40.7407407,96.3636364 L40.7407407,58.82 L38.8888889,59.5218182 L38.8888889,59.5218182 Z" id="Shape"></path>
                    <polygon id="Shape" points="35.1851852 60.9309091 35.1851852 83.6363636 5.55555556 83.6363636 5.55555556 41.8181818 35.1851852 41.8181818 35.1851852 55.0818182 37.037037 54.3781818 37.037037 40 3.7037037 40 3.7037037 85.4545455 37.037037 85.4545455 37.037037 60.2254545"></polygon>
                </g>
            </g>
        </g>
    </g>
</svg>