<?xml version="1.0" encoding="UTF-8"?>
<svg width="95px" height="100px" viewBox="0 0 95 100" version="1.1" xmlns="http://www.w3.org/2000/svg" xmlns:xlink="http://www.w3.org/1999/xlink">
    <!-- Generator: Sketch 40.3 (33839) - http://www.bohemiancoding.com/sketch -->
    <title>native_wp_theme</title>
    <desc>Created with Sketch.</desc>
    <defs></defs>
    <g id="Page-1" stroke="none" stroke-width="1" fill="none" fill-rule="evenodd">
        <g id="Icons" transform="translate(-341.000000, -41.000000)" fill="#080808">
            <g id="native_wp_theme" transform="translate(341.000000, 41.000000)">
                <path d="M47.5,40.405877 C31.3810577,40.405877 18.2692308,53.5886134 18.2692308,69.7906336 C18.2692308,85.9926538 31.3810577,99.1753903 47.5,99.1753903 C63.6189423,99.1753903 76.7307692,85.9926538 76.7307692,69.7906336 C76.7307692,53.5886134 63.6189423,40.405877 47.5,40.405877 L47.5,40.405877 Z M47.5,97.338843 C32.3895192,97.338843 20.0961538,84.9807163 20.0961538,69.7906336 C20.0961538,54.600551 32.3895192,42.2424242 47.5,42.2424242 C62.6104808,42.2424242 74.9038462,54.600551 74.9038462,69.7906336 C74.9038462,84.9807163 62.6104808,97.338843 47.5,97.338843 L47.5,97.338843 Z" id="Shape"></path>
                <g id="Group" transform="translate(27.287234, 53.535354)">
                    <path d="M11.6223404,5.55555556 L1.51595745,5.55555556 C0.818617021,5.55555556 0.252659574,4.98737374 0.252659574,4.29292929 C0.252659574,3.59848485 0.818617021,3.03030303 1.51595745,3.03030303 L11.6223404,3.03030303 C12.3196809,3.03030303 12.8856383,3.59848485 12.8856383,4.29292929 C12.8856383,4.98737374 12.3196809,5.55555556 11.6223404,5.55555556 L11.6223404,5.55555556 Z" id="Shape"></path>
                    <path d="M26.7819149,5.55555556 L16.6755319,5.55555556 C15.9781915,5.55555556 15.412234,4.98737374 15.412234,4.29292929 C15.412234,3.59848485 15.9781915,3.03030303 16.6755319,3.03030303 L26.7819149,3.03030303 C27.4767287,3.03030303 28.0452128,3.59848485 28.0452128,4.29292929 C28.0452128,4.98737374 27.4767287,5.55555556 26.7819149,5.55555556 L26.7819149,5.55555556 Z" id="Shape"></path>
                    <path d="M14.3055851,35.8585859 L13.7269947,35.8585859 C13.1888298,35.8585859 12.7113032,35.5176768 12.5344415,35.010101 L2.00611702,4.78535354 C1.77619681,4.12626263 2.12486702,3.40656566 2.78430851,3.17929293 C3.4462766,2.9469697 4.16382979,3.2979798 4.39375,3.95959596 L14.0226064,31.5984848 L20.4401596,13.3434343 C20.6700798,12.6868687 21.3926862,12.3358586 22.0496011,12.5707071 C22.7115691,12.8030303 23.0551862,13.5227273 22.825266,14.1818182 L15.5057181,35.0176768 C15.3212766,35.520202 14.84375,35.8585859 14.3055851,35.8585859 L14.3055851,35.8585859 Z" id="Shape"></path>
                    <path d="M31.7138298,29.3207071 C31.1908245,29.3207071 30.7031915,28.9949495 30.5212766,28.4747475 L22.2214096,4.70959596 C21.9889628,4.05050505 22.3401596,3.33080808 22.9996011,3.1010101 C23.6590426,2.87121212 24.3791223,3.21969697 24.6115691,3.87626263 L32.9089096,27.6414141 C33.1388298,28.3005051 32.7901596,29.020202 32.1307181,29.25 C31.9942819,29.2979798 31.850266,29.3207071 31.7138298,29.3207071 L31.7138298,29.3207071 Z" id="Shape"></path>
                    <path d="M16.5542553,29.3207071 C16.03125,29.3207071 15.543617,28.9949495 15.3617021,28.4747475 L7.06183511,4.70959596 C6.83191489,4.05050505 7.18058511,3.33080808 7.8400266,3.1010101 C8.49694149,2.87121212 9.21702128,3.21969697 9.44946809,3.87626263 L17.7493351,27.6414141 C17.9792553,28.3005051 17.6305851,29.020202 16.9711436,29.25 C16.8321809,29.2979798 16.6906915,29.3207071 16.5542553,29.3207071 L16.5542553,29.3207071 Z" id="Shape"></path>
                    <path d="M29.4676862,35.8585859 L28.8890957,35.8585859 C28.3509309,35.8585859 27.8784574,35.5176768 27.694016,35.010101 L17.1656915,4.78535354 C16.9357713,4.12373737 17.2844415,3.40656566 17.943883,3.17676768 C18.6033245,2.94444444 19.3234043,3.29545455 19.5533245,3.95707071 L29.1821809,31.5909091 L35.2788564,14.2070707 C35.5416223,13.4191919 37.8256649,6.36868687 34.3945479,2.27777778 C33.9473404,1.75 34.0180851,0.95959596 34.5537234,0.505050505 C35.0893617,0.053030303 35.8852394,0.133838384 36.3299202,0.664141414 C40.5644947,5.7020202 38.1844415,13.5227273 37.6664894,15.0328283 L30.662766,35.0050505 C30.4808511,35.520202 30.0033245,35.8585859 29.4676862,35.8585859 L29.4676862,35.8585859 Z" id="Shape"></path>
                </g>
                <path d="M95,18.3654729 L84.0384615,0 L84.0366346,0 L10.9633654,0 L10.9615385,0 L0,18.3654729 L0,18.3654729 L0,18.3673095 L0.00182692308,18.3673095 L26.2163462,47.1147842 C26.6694231,46.6850321 27.1206731,46.2534435 27.5993269,45.8512397 L2.26903846,18.0495868 L11.2702885,3.05601469 L43.8644231,38.8025712 C44.6299038,38.7125803 45.41,38.6685032 46.1919231,38.6354454 L27.7089423,18.3654729 L67.2892308,18.3654729 L48.8080769,38.6354454 C49.5918269,38.6685032 50.3700962,38.7125803 51.1355769,38.8025712 L83.7315385,3.05601469 L92.7327885,18.134068 L67.4317308,45.8787879 C67.8994231,46.2736455 68.3415385,46.6942149 68.7836538,47.1147842 L95,18.3654729 L95,18.3654729 L95,18.3654729 L95,18.3654729 L95,18.3654729 Z M68.9645192,16.5289256 L26.0354808,16.5289256 L12.6386538,1.83654729 L82.3631731,1.83654729 L68.9645192,16.5289256 L68.9645192,16.5289256 Z" id="Shape"></path>
            </g>
        </g>
    </g>
</svg>