<?xml version="1.0" encoding="UTF-8"?>
<svg width="171px" height="40px" viewBox="0 0 171 40" version="1.1" xmlns="http://www.w3.org/2000/svg" xmlns:xlink="http://www.w3.org/1999/xlink">
    <!-- Generator: Sketch 40.3 (33839) - http://www.bohemiancoding.com/sketch -->
    <title>logo</title>
    <desc>Created with Sketch.</desc>
    <defs></defs>
    <g id="Page-1" stroke="none" stroke-width="1" fill="none" fill-rule="evenodd">
        <g id="Icons" transform="translate(-249.000000, -90.000000)" fill="#FFFFFF">
            <g id="logo" transform="translate(250.000000, 90.000000)">
                <path d="M89.2785,11.4079 C89.3825,11.2879 89.5025,11.1829 89.6405,11.0919 C89.7785,11.0019 89.9275,10.9339 90.0875,10.8859 C90.2465,10.8389 90.4085,10.8159 90.5725,10.8159 C91.1325,10.8159 91.5815,11.0859 91.9175,11.6269 L96.5615,19.2249 L101.3355,11.4589 C101.6195,10.9959 102.0255,10.7639 102.5515,10.7639 C102.7235,10.7639 102.8915,10.7939 103.0555,10.8539 C103.2195,10.9139 103.3635,10.9959 103.4885,11.0989 C103.6135,11.2019 103.7155,11.3269 103.7925,11.4719 C103.8705,11.6179 103.9095,11.7769 103.9095,11.9489 C103.9095,12.0689 103.8905,12.1889 103.8515,12.3089 C103.8125,12.4299 103.7545,12.5539 103.6765,12.6829 L97.9975,21.6069 L97.9975,27.7239 C97.9975,28.2049 97.8375,28.5829 97.5185,28.8569 C97.1995,29.1319 96.8245,29.2689 96.3935,29.2689 C95.9625,29.2689 95.5875,29.1319 95.2685,28.8569 C94.9485,28.5829 94.7895,28.2009 94.7895,27.7109 L94.7895,21.7229 L89.1495,12.9279 C89.0795,12.8159 89.0285,12.7039 88.9935,12.5929 C88.9595,12.4809 88.9425,12.3699 88.9425,12.2579 C88.9425,12.1029 88.9725,11.9529 89.0325,11.8069 C89.0925,11.6609 89.1745,11.5279 89.2785,11.4079 L89.2785,11.4079 Z M68.9215,10.7769 L81.1595,10.7769 C81.5475,10.7769 81.8515,10.9059 82.0715,11.1629 C82.2915,11.4209 82.4015,11.7169 82.4015,12.0519 C82.4015,12.3869 82.2915,12.6829 82.0715,12.9399 C81.8515,13.1979 81.5475,13.3269 81.1595,13.3269 L76.6575,13.3269 L76.6575,27.7239 C76.6575,28.2129 76.4985,28.5949 76.1795,28.8699 C75.8605,29.1449 75.4805,29.2819 75.0405,29.2819 C74.6095,29.2819 74.2345,29.1449 73.9155,28.8699 C73.5965,28.5949 73.4365,28.2129 73.4365,27.7239 L73.4365,13.3269 L68.9215,13.3269 C68.5255,13.3269 68.2145,13.1979 67.9905,12.9399 C67.7665,12.6829 67.6545,12.3869 67.6545,12.0519 C67.6545,11.7169 67.7665,11.4209 67.9905,11.1629 C68.2145,10.9059 68.5255,10.7769 68.9215,10.7769 L68.9215,10.7769 Z M50.7125,10.7769 L59.6775,10.7769 C60.0655,10.7769 60.3655,10.9059 60.5765,11.1629 C60.7875,11.4209 60.8935,11.7169 60.8935,12.0519 C60.8935,12.3869 60.7875,12.6829 60.5765,12.9399 C60.3655,13.1979 60.0655,13.3269 59.6775,13.3269 L52.3685,13.3269 L52.3685,18.5039 L59.3285,18.5039 C59.7075,18.5039 60.0055,18.6259 60.2215,18.8709 C60.4365,19.1149 60.5445,19.4049 60.5445,19.7399 C60.5445,20.0749 60.4385,20.3639 60.2275,20.6089 C60.0165,20.8539 59.7165,20.9759 59.3285,20.9759 L52.3685,20.9759 L52.3685,27.7239 C52.3685,28.2129 52.2065,28.5929 51.8835,28.8639 C51.5605,29.1339 51.1785,29.2689 50.7385,29.2689 C50.2985,29.2689 49.9235,29.1339 49.6135,28.8639 C49.3025,28.5929 49.1475,28.2129 49.1475,27.7239 L49.1475,12.3609 C49.1475,11.9149 49.3025,11.5389 49.6135,11.2339 C49.9235,10.9289 50.2905,10.7769 50.7125,10.7769 L50.7125,10.7769 Z M37.5745,10.7639 C38.0055,10.7639 38.3815,10.8989 38.7005,11.1699 C39.0195,11.4399 39.1785,11.8199 39.1785,12.3089 L39.1785,27.7109 C39.1785,28.2009 39.0195,28.5779 38.7005,28.8449 C38.3815,29.1109 38.0015,29.2439 37.5615,29.2439 C37.1225,29.2439 36.7445,29.1079 36.4295,28.8379 C36.1155,28.5679 35.9575,28.1919 35.9575,27.7109 L35.9575,12.3089 C35.9575,11.8199 36.1175,11.4399 36.4365,11.1699 C36.7555,10.8989 37.1345,10.7639 37.5745,10.7639 L37.5745,10.7639 Z M12.1605,10.7899 C12.5055,10.7899 12.8635,10.8759 13.2335,11.0469 C13.6045,11.2189 13.9065,11.4679 14.1395,11.7939 L23.0655,24.5049 L23.0655,12.1679 C23.0655,11.7389 23.2125,11.3999 23.5055,11.1499 C23.7985,10.9009 24.1435,10.7769 24.5405,10.7769 C24.9365,10.7769 25.2795,10.8989 25.5685,11.1439 C25.8575,11.3889 26.0015,11.7299 26.0015,12.1679 L26.0015,27.3249 C26.0015,27.9169 25.8275,28.3899 25.4785,28.7409 C25.1285,29.0939 24.7035,29.2689 24.2035,29.2689 C23.8765,29.2689 23.5205,29.1729 23.1365,28.9799 C22.7525,28.7859 22.4485,28.5309 22.2245,28.2129 L13.3635,15.6579 L13.3635,27.9039 C13.3635,28.3249 13.2145,28.6579 12.9165,28.9019 C12.6195,29.1469 12.2725,29.2689 11.8755,29.2689 C11.4785,29.2689 11.1355,29.1489 10.8475,28.9089 C10.5585,28.6689 10.4135,28.3339 10.4135,27.9039 L10.4135,12.7339 C10.4135,12.1339 10.5815,11.6589 10.9185,11.3109 C11.2545,10.9639 11.6685,10.7899 12.1605,10.7899 L12.1605,10.7899 Z M126.0635,18.2809 C126.1575,18.1969 126.3095,18.0969 126.5185,17.9839 C126.7275,17.8699 126.9725,17.7559 127.2535,17.6419 C127.5355,17.5279 127.8975,17.4309 128.3415,17.3509 C128.7845,17.2709 129.2535,17.2309 129.7485,17.2309 C131.4285,17.2309 132.8005,17.7689 133.8625,18.8439 C134.9245,19.9199 135.4555,21.3179 135.4555,23.0389 C135.4555,24.2279 135.1715,25.2799 134.6045,26.1959 C134.0365,27.1109 133.2695,27.8089 132.3015,28.2899 C131.3325,28.7709 130.2475,29.0109 129.0455,29.0109 C126.8955,29.0109 125.0405,28.3659 123.4795,27.0749 C123.2915,26.9149 123.1975,26.6999 123.1975,26.4299 C123.1975,26.0839 123.3275,25.7549 123.5885,25.4429 C123.8485,25.1309 124.1365,24.9739 124.4515,24.9739 C124.5455,24.9739 124.6355,24.9889 124.7205,25.0189 C124.8055,25.0479 124.8865,25.0929 124.9635,25.1519 C126.1485,26.0539 127.4715,26.5059 128.9295,26.5059 C130.0725,26.5059 130.9425,26.1939 131.5395,25.5689 C132.1365,24.9449 132.4355,24.0719 132.4355,22.9499 C132.4355,21.9289 132.1435,21.1239 131.5595,20.5329 C130.9745,19.9429 130.2045,19.6469 129.2495,19.6469 C128.0815,19.6469 126.9635,20.1109 125.8975,21.0389 C125.8635,21.0729 125.8095,21.0959 125.7375,21.1089 C125.6655,21.1219 125.5815,21.1279 125.4885,21.1279 C125.3855,21.1279 125.2725,21.1199 125.1495,21.1029 C125.0255,21.0859 124.8975,21.0579 124.7655,21.0209 C124.6335,20.9829 124.5035,20.9399 124.3755,20.8939 C124.2475,20.8479 124.1275,20.7889 124.0165,20.7169 C123.9055,20.6449 123.8075,20.5709 123.7225,20.4949 C123.6375,20.4189 123.5685,20.3349 123.5175,20.2419 C123.4665,20.1499 123.4405,20.0519 123.4405,19.9509 L123.4405,12.0049 C123.4405,11.5239 123.5665,11.1719 123.8185,10.9479 C124.0695,10.7249 124.4605,10.6129 124.9895,10.6129 L133.3435,10.6129 C133.6855,10.6129 133.9495,10.7309 134.1375,10.9669 C134.3245,11.2039 134.4185,11.4729 134.4185,11.7769 C134.4185,12.0889 134.3245,12.3609 134.1375,12.5929 C133.9495,12.8249 133.6855,12.9409 133.3435,12.9409 L125.9365,12.9409 L125.9365,18.3949 L126.0635,18.2809 Z M149.9095,12.7439 C146.1275,12.7439 143.0615,15.7959 143.0615,19.5609 C143.0615,23.3249 146.1275,26.3769 149.9095,26.3769 C153.6905,26.3769 156.7565,23.3249 156.7565,19.5609 C156.7565,15.7959 153.6905,12.7439 149.9095,12.7439 L149.9095,12.7439 Z M149.9095,29.0109 C144.6655,29.0109 140.4155,24.7799 140.4155,19.5609 C140.4155,14.3409 144.6655,10.1099 149.9095,10.1099 C155.1525,10.1099 159.4025,14.3409 159.4025,19.5609 C159.4025,24.7799 155.1525,29.0109 149.9095,29.0109 L149.9095,29.0109 Z M166.9995,3.9999 C166.9995,3.4479 166.5525,2.9999 165.9995,2.9999 L114.9995,2.9999 L114.9995,36.9999 L165.9995,36.9999 C166.5525,36.9999 166.9995,36.5519 166.9995,35.9999 L166.9995,3.9999 Z M111.9995,2.9999 L3.9995,2.9999 C3.4475,2.9999 2.9995,3.4479 2.9995,3.9999 L2.9995,35.9999 C2.9995,36.5519 3.4475,36.9999 3.9995,36.9999 L111.9995,36.9999 L111.9995,2.9999 Z M164.9995,39.9999 L4.9995,39.9999 C2.2385,39.9999 -0.0005,37.7619 -0.0005,34.9999 L-0.0005,4.9999 C-0.0005,2.2389 2.2385,-0.0001 4.9995,-0.0001 L164.9995,-0.0001 C167.7615,-0.0001 169.9995,2.2389 169.9995,4.9999 L169.9995,34.9999 C169.9995,37.7619 167.7615,39.9999 164.9995,39.9999 L164.9995,39.9999 Z" id="Fill-1"></path>
            </g>
        </g>
    </g>
</svg>