<?xml version="1.0" encoding="UTF-8"?>
<svg width="100px" height="100px" viewBox="0 0 100 100" version="1.1" xmlns="http://www.w3.org/2000/svg" xmlns:xlink="http://www.w3.org/1999/xlink">
    <!-- Generator: Sketch 40.3 (33839) - http://www.bohemiancoding.com/sketch -->
    <title>seo_literate</title>
    <desc>Created with Sketch.</desc>
    <defs></defs>
    <g id="Page-1" stroke="none" stroke-width="1" fill="none" fill-rule="evenodd">
        <g id="Icons" transform="translate(-40.000000, -40.000000)" fill="#080808">
            <g id="seo_literate" transform="translate(40.000000, 40.000000)">
                <g>
                    <g id="Group" transform="translate(5.357143, 5.357143)">
                        <path d="M7.14285714,17.8571429 L7.14285714,94.6428571 L94.6428571,94.6428571 L94.6428571,17.8571429 L7.14285714,17.8571429 L7.14285714,17.8571429 Z M92.8571429,92.8571429 L8.92857143,92.8571429 L8.92857143,35.7142857 L92.8571429,35.7142857 L92.8571429,92.8571429 L92.8571429,92.8571429 Z M92.8571429,33.9285714 L8.92857143,33.9285714 L8.92857143,19.6428571 L92.8571429,19.6428571 L92.8571429,33.9285714 L92.8571429,33.9285714 Z" id="Shape"></path>
                        <g id="Shape">
                            <path d="M51.7857143,0 L51.7857143,7.14285714 L76.7857143,7.14285714 L76.7857143,0 L51.7857143,0 L51.7857143,0 Z M75,5.35714286 L53.5714286,5.35714286 L53.5714286,1.78571429 L75,1.78571429 L75,5.35714286 L75,5.35714286 Z"></path>
                            <path d="M21.4285714,0 L21.4285714,7.14285714 L28.5714286,7.14285714 L28.5714286,0 L21.4285714,0 L21.4285714,0 Z M26.7857143,5.35714286 L23.2142857,5.35714286 L23.2142857,1.78571429 L26.7857143,1.78571429 L26.7857143,5.35714286 L26.7857143,5.35714286 Z"></path>
                            <path d="M10.7142857,0 L10.7142857,7.14285714 L17.8571429,7.14285714 L17.8571429,0 L10.7142857,0 L10.7142857,0 Z M16.0714286,5.35714286 L12.5,5.35714286 L12.5,1.78571429 L16.0714286,1.78571429 L16.0714286,5.35714286 L16.0714286,5.35714286 Z"></path>
                            <path d="M0,0 L0,7.14285714 L7.14285714,7.14285714 L7.14285714,0 L0,0 L0,0 Z M5.35714286,5.35714286 L1.78571429,5.35714286 L1.78571429,1.78571429 L5.35714286,1.78571429 L5.35714286,5.35714286 L5.35714286,5.35714286 Z"></path>
                        </g>
                        <g transform="translate(12.500000, 23.214286)" id="Shape">
                            <path d="M51.7857143,0 L51.7857143,7.14285714 L76.7857143,7.14285714 L76.7857143,0 L51.7857143,0 L51.7857143,0 Z M75,5.35714286 L53.5714286,5.35714286 L53.5714286,1.78571429 L75,1.78571429 L75,5.35714286 L75,5.35714286 Z"></path>
                            <path d="M21.4285714,0 L21.4285714,7.14285714 L28.5714286,7.14285714 L28.5714286,0 L21.4285714,0 L21.4285714,0 Z M26.7857143,5.35714286 L23.2142857,5.35714286 L23.2142857,1.78571429 L26.7857143,1.78571429 L26.7857143,5.35714286 L26.7857143,5.35714286 Z"></path>
                            <path d="M10.7142857,0 L10.7142857,7.14285714 L17.8571429,7.14285714 L17.8571429,0 L10.7142857,0 L10.7142857,0 Z M16.0714286,5.35714286 L12.5,5.35714286 L12.5,1.78571429 L16.0714286,1.78571429 L16.0714286,5.35714286 L16.0714286,5.35714286 Z"></path>
                            <path d="M0,0 L0,7.14285714 L7.14285714,7.14285714 L7.14285714,0 L0,0 L0,0 Z M5.35714286,5.35714286 L1.78571429,5.35714286 L1.78571429,1.78571429 L5.35714286,1.78571429 L5.35714286,5.35714286 L5.35714286,5.35714286 Z"></path>
                        </g>
                    </g>
                    <path d="M89.0464286,51.8964286 L90.3535714,49.6821429 L89.2857143,45.5357143 L85.1392857,46.6035714 L83.8321429,48.8178571 L86.7553571,48.0642857 L75.5803571,66.9892857 C74.95,66.425 74.125,66.0714286 73.2142857,66.0714286 C72.4767857,66.0714286 71.7910714,66.2964286 71.2214286,66.6803571 L65.2178571,59.4321429 C65.7428571,58.8107143 66.0714286,58.0178571 66.0714286,57.1428571 C66.0714286,55.1732143 64.4696429,53.5714286 62.5,53.5714286 C60.5303571,53.5714286 58.9285714,55.1732143 58.9285714,57.1428571 C58.9285714,58.0267857 59.2625,58.825 59.7964286,59.45 L50.7357143,75.0785714 C50.4982143,75.0285714 50.2517857,75 50,75 C49.2625,75 48.5767857,75.225 48.0053571,75.6089286 L40.9321429,70.5732143 C41.0142857,70.275 41.0714286,69.9678571 41.0714286,69.6428571 C41.0714286,67.6732143 39.4696429,66.0714286 37.5,66.0714286 C35.5303571,66.0714286 33.9285714,67.6732143 33.9285714,69.6428571 C33.9285714,70.1303571 34.0285714,70.5964286 34.2053571,71.0196429 L24.1178571,85.8428571 C23.8285714,85.7678571 23.5285714,85.7142857 23.2142857,85.7142857 C21.2446429,85.7142857 19.6428571,87.3160714 19.6428571,89.2857143 C19.6428571,91.2553571 21.2446429,92.8571429 23.2142857,92.8571429 C25.1839286,92.8571429 26.7857143,91.2553571 26.7857143,89.2857143 C26.7857143,88.2767857 26.3607143,87.3678571 25.6839286,86.7178571 L35.3660714,72.4910714 C35.9642857,72.9392857 36.6964286,73.2142857 37.5,73.2142857 C38.4982143,73.2142857 39.4,72.8 40.0482143,72.1375 L46.8285714,76.9642857 C46.5803571,77.4482143 46.4285714,77.9892857 46.4285714,78.5714286 C46.4285714,80.5410714 48.0303571,82.1428571 50,82.1428571 C51.9696429,82.1428571 53.5714286,80.5410714 53.5714286,78.5714286 C53.5714286,77.4964286 53.0839286,76.5410714 52.3303571,75.8875 L61.2625,60.4821429 C61.65,60.625 62.0625,60.7142857 62.5,60.7142857 C62.9464286,60.7142857 63.3696429,60.6232143 63.7642857,60.4714286 L70.0375,68.0464286 C69.7928571,68.5285714 69.6428571,69.0660714 69.6428571,69.6428571 C69.6428571,71.6125 71.2446429,73.2142857 73.2142857,73.2142857 C75.1839286,73.2142857 76.7857143,71.6125 76.7857143,69.6428571 C76.7857143,69.3142857 76.7267857,69.0035714 76.6428571,68.7 L88.2928571,48.9714286 L89.0464286,51.8964286 L89.0464286,51.8964286 Z M23.2142857,91.0714286 C22.2303571,91.0714286 21.4285714,90.2696429 21.4285714,89.2857143 C21.4285714,88.3017857 22.2303571,87.5 23.2142857,87.5 C24.1982143,87.5 25,88.3017857 25,89.2857143 C25,90.2696429 24.1982143,91.0714286 23.2142857,91.0714286 L23.2142857,91.0714286 Z M37.5,71.4285714 C36.5160714,71.4285714 35.7142857,70.6267857 35.7142857,69.6428571 C35.7142857,68.6589286 36.5160714,67.8571429 37.5,67.8571429 C38.4839286,67.8571429 39.2857143,68.6589286 39.2857143,69.6428571 C39.2857143,70.6267857 38.4839286,71.4285714 37.5,71.4285714 L37.5,71.4285714 Z M50,80.3571429 C49.0160714,80.3571429 48.2142857,79.5553571 48.2142857,78.5714286 C48.2142857,77.5875 49.0160714,76.7857143 50,76.7857143 C50.9839286,76.7857143 51.7857143,77.5875 51.7857143,78.5714286 C51.7857143,79.5553571 50.9839286,80.3571429 50,80.3571429 L50,80.3571429 Z M60.7142857,57.1428571 C60.7142857,56.1589286 61.5160714,55.3571429 62.5,55.3571429 C63.4839286,55.3571429 64.2857143,56.1589286 64.2857143,57.1428571 C64.2857143,58.1267857 63.4839286,58.9285714 62.5,58.9285714 C61.5160714,58.9285714 60.7142857,58.1267857 60.7142857,57.1428571 L60.7142857,57.1428571 Z M73.2142857,71.4285714 C72.2303571,71.4285714 71.4285714,70.6267857 71.4285714,69.6428571 C71.4285714,68.6589286 72.2303571,67.8571429 73.2142857,67.8571429 C74.1982143,67.8571429 75,68.6589286 75,69.6428571 C75,70.6267857 74.1982143,71.4285714 73.2142857,71.4285714 L73.2142857,71.4285714 Z" id="Shape"></path>
                    <path d="M10.7142857,75 L1.78571429,75 L1.78571429,17.8571429 L85.7142857,17.8571429 L85.7142857,21.4285714 L87.5,21.4285714 L87.5,0 L0,0 L0,76.7857143 L10.7142857,76.7857143 L10.7142857,75 L10.7142857,75 Z M1.78571429,1.78571429 L85.7142857,1.78571429 L85.7142857,16.0714286 L1.78571429,16.0714286 L1.78571429,1.78571429 L1.78571429,1.78571429 Z" id="Shape"></path>
                </g>
            </g>
        </g>
    </g>
</svg>